<?xml version="1.0" encoding="UTF-8"?>
<!DOCTYPE svg PUBLIC "-//W3C//DTD SVG 1.1//EN" "http://www.w3.org/Graphics/SVG/1.1/DTD/svg11.dtd">
<!-- Creator: CorelDRAW -->
<svg xmlns="http://www.w3.org/2000/svg" xml:space="preserve" width="7.33333in" height="7.33333in" style="shape-rendering:geometricPrecision; text-rendering:geometricPrecision; image-rendering:optimizeQuality; fill-rule:evenodd; clip-rule:evenodd"
viewBox="0 0 7.33333 7.33333"
 xmlns:xlink="http://www.w3.org/1999/xlink">
 <defs>
  <style type="text/css">
   <![CDATA[
    .fil4 {fill:url(#id0)}
    .fil3 {fill:url(#id1);fill-rule:nonzero}
    .fil1 {fill:url(#id2);fill-rule:nonzero}
    .fil2 {fill:url(#id3);fill-rule:nonzero}
    .fil0 {fill:url(#id4);fill-rule:nonzero}
   ]]>
  </style>
  <linearGradient id="id0" gradientUnits="userSpaceOnUse" x1="-3.93701e-006" y1="3.66667" x2="7.33333" y2="3.66667">
   <stop offset="0" style="stop-color:#E4877C"/>
   <stop offset="1" style="stop-color:#B03686"/>
  </linearGradient>
  <linearGradient id="id1" gradientUnits="userSpaceOnUse" xlink:href="#id0" x1="1.88464" y1="4.31226" x2="3.19707" y2="4.31226">
  </linearGradient>
  <linearGradient id="id2" gradientUnits="userSpaceOnUse" xlink:href="#id0" x1="1.09551" y1="2.94467" x2="6.23782" y2="2.94467">
  </linearGradient>
  <linearGradient id="id3" gradientUnits="userSpaceOnUse" xlink:href="#id0" x1="4.13506" y1="4.2989" x2="5.44845" y2="4.2989">
  </linearGradient>
  <linearGradient id="id4" gradientUnits="userSpaceOnUse" xlink:href="#id0" x1="1.10667" y1="3.66667" x2="6.22667" y2="3.66667">
  </linearGradient>
 </defs>
 <g id="Layer_x0020_1">
  <metadata id="CorelCorpID_0Corel-Layer"/>
  <path class="fil0" d="M1.18667 2.14869l4.96 0c0.0441811,0 0.08,0.0358189 0.08,0.08l0 2.87596c0,0.0441811 -0.0358189,0.08 -0.08,0.08l-4.96 0c-0.0441811,0 -0.08,-0.0358189 -0.08,-0.08l0 -2.87596c0,-0.0441811 0.0358189,-0.08 0.08,-0.08zm4.88 0.16l-4.8 0 0 2.71596 4.8 0 0 -2.71596z"/>
  <path class="fil1" d="M1.22667 2.15962c-0.0381417,-0.0220906 -0.0869724,-0.00907874 -0.109063,0.029063 -0.0220906,0.0381417 -0.00907874,0.0869724 0.029063,0.109063l2.47996 1.43796 -9.44882e-005 0.000165354c0.0274921,0.0159409 0.0605394,0.0136772 0.0851732,-0.00307087l2.47496 -1.43506c0.0381417,-0.0220906 0.0511535,-0.0709213 0.029063,-0.109063 -0.0220906,-0.0381417 -0.0709213,-0.0511535 -0.109063,-0.029063l-2.44 1.41479 -2.44 -1.41479z"/>
  <path class="fil2" d="M4.26573 3.90322c-0.0381417,-0.0219173 -0.0868346,-0.00876772 -0.108752,0.029374 -0.0219173,0.0381417 -0.00876772,0.0868346 0.029374,0.108752l1.13143 0.653232c0.0381417,0.0219173 0.0868346,0.00876772 0.108752,-0.029374 0.0219173,-0.0381417 0.00876772,-0.0868346 -0.029374,-0.108752l-1.13143 -0.653232z"/>
  <path class="fil3" d="M3.14711 4.03906c0.0377953,-0.0227795 0.0499646,-0.0718937 0.027185,-0.109689 -0.0227795,-0.0377953 -0.0718937,-0.0499646 -0.109689,-0.027185l-1.13 0.68328c-0.0377953,0.0227795 -0.0499646,0.0718937 -0.027185,0.109689 0.0227795,0.0377953 0.0718937,0.0499646 0.109689,0.027185l1.13 -0.68328z"/>
  <path class="fil4" d="M1.28486 0l4.76361 0c0.706677,0 1.28486,0.578185 1.28486,1.28486l0 4.76361c0,0.706677 -0.578185,1.28486 -1.28486,1.28486l-4.76361 0c-0.706677,0 -1.28486,-0.578185 -1.28486,-1.28486l0 -4.76361c0,-0.706677 0.578185,-1.28486 1.28486,-1.28486zm3.93701e-006 0.321209l4.76361 0c0.530008,0 0.96365,0.433642 0.96365,0.96365l0 4.76361c0,0.530008 -0.433642,0.96365 -0.96365,0.96365l-4.76361 0c-0.530008,0 -0.96365,-0.433642 -0.96365,-0.96365l0 -4.76361c0,-0.530008 0.433642,-0.96365 0.96365,-0.96365z"/>
 </g>
</svg>
