<svg id="Capa_1" enable-background="new 0 0 512 512" height="512" viewBox="0 0 512 512" width="512" xmlns="http://www.w3.org/2000/svg"><g><path d="m497 0h-482c-8.284 0-15 6.716-15 15v65c0 8.284 6.716 15 15 15h15v342c0 8.284 6.716 15 15 15h196v30h-15c-8.284 0-15 6.716-15 15s6.716 15 15 15h60c8.284 0 15-6.716 15-15s-6.716-15-15-15h-15v-30h196c8.284 0 15-6.716 15-15v-342h15c8.284 0 15-6.716 15-15v-65c0-8.284-6.716-15-15-15zm-45 422h-392v-327h392zm30-357h-452v-35h452z"/><path d="m180.799 366.599c50.066 0 90.799-40.732 90.799-90.8 0-50.067-40.732-90.799-90.799-90.799s-90.799 40.732-90.799 90.799c0 50.068 40.732 90.8 90.799 90.8zm58.922-105.8h-43.922v-43.923c21.493 5.476 38.448 22.429 43.922 43.923zm-73.922-43.923v58.923c0 8.284 6.716 15 15 15h58.922c-6.697 26.295-30.573 45.8-58.922 45.8-33.524 0-60.799-27.274-60.799-60.8 0-28.349 19.505-52.225 45.799-58.923z"/><path d="m160.399 155h191.201c8.284 0 15-6.716 15-15s-6.716-15-15-15h-191.201c-8.284 0-15 6.716-15 15s6.716 15 15 15z"/><path d="m301.598 215.799c0 8.284 6.716 15 15 15h90.402c8.284 0 15-6.716 15-15s-6.716-15-15-15h-90.402c-8.284 0-15 6.716-15 15z"/><path d="m407 260.799h-90.402c-8.284 0-15 6.716-15 15s6.716 15 15 15h90.402c8.284 0 15-6.716 15-15s-6.716-15-15-15z"/><path d="m407 320.799h-90.402c-8.284 0-15 6.716-15 15s6.716 15 15 15h90.402c8.284 0 15-6.716 15-15s-6.716-15-15-15z"/></g></svg>