<?xml version="1.0" standalone="no"?>
<!DOCTYPE svg PUBLIC "-//W3C//DTD SVG 20010904//EN"
 "http://www.w3.org/TR/2001/REC-SVG-20010904/DTD/svg10.dtd">
<svg version="1.0" xmlns="http://www.w3.org/2000/svg"
 width="512.000000pt" height="512.000000pt" viewBox="0 0 512.000000 512.000000"
 preserveAspectRatio="xMidYMid meet">

<g transform="translate(0.000000,512.000000) scale(0.100000,-0.100000)"
fill="#000000" stroke="none">
<path d="M1329 4502 l-1216 -497 1219 -3 c670 -1 1767 -1 2437 0 l1220 3
-1207 492 c-664 271 -1214 494 -1222 497 -8 3 -562 -218 -1231 -492z"/>
<path d="M100 3600 l0 -200 100 0 100 0 0 -100 0 -100 100 0 100 0 0 -1150 0
-1150 -100 0 -100 0 0 -100 0 -100 450 0 450 0 0 100 0 100 -100 0 -100 0 0
1150 0 1150 100 0 100 0 0 100 0 100 150 0 150 0 0 -100 0 -100 100 0 100 0 0
-1150 0 -1150 -100 0 -100 0 0 -100 0 -100 450 0 450 0 0 100 0 100 -100 0
-100 0 0 1150 0 1150 100 0 100 0 0 100 0 100 150 0 150 0 0 -100 0 -100 100
0 100 0 0 -1150 0 -1150 -100 0 -100 0 0 -100 0 -100 450 0 450 0 0 100 0 100
-100 0 -100 0 0 1150 0 1150 100 0 100 0 0 100 0 100 150 0 150 0 0 -100 0
-100 100 0 100 0 0 -1150 0 -1150 -100 0 -100 0 0 -100 0 -100 450 0 450 0 0
100 0 100 -100 0 -100 0 0 1150 0 1150 100 0 100 0 0 100 0 100 100 0 100 0 0
200 0 200 -2450 0 -2450 0 0 -200z"/>
<path d="M300 450 l0 -50 -100 0 -100 0 0 -150 0 -150 2450 0 2450 0 0 150 0
150 -100 0 -100 0 0 50 0 50 -2250 0 -2250 0 0 -50z"/>
</g>
</svg>
