<?xml version="1.0" standalone="no"?>
<!DOCTYPE svg PUBLIC "-//W3C//DTD SVG 20010904//EN"
 "http://www.w3.org/TR/2001/REC-SVG-20010904/DTD/svg10.dtd">
<svg version="1.0" xmlns="http://www.w3.org/2000/svg"
 width="512.000000pt" height="512.000000pt" viewBox="0 0 512.000000 512.000000"
 preserveAspectRatio="xMidYMid meet">

<g transform="translate(0.000000,512.000000) scale(0.100000,-0.100000)"
fill="#000000" stroke="none">
<path d="M2430 5114 c-395 -44 -666 -148 -952 -366 -518 -393 -794 -1101 -657
-1686 97 -416 384 -1017 848 -1772 241 -394 828 -1255 874 -1284 12 -8 22 -8
34 0 46 29 633 890 874 1284 464 755 751 1356 848 1772 77 328 20 731 -149
1068 -261 519 -739 871 -1310 966 -85 14 -345 26 -410 18z m257 -1150 c297
-61 505 -316 505 -619 1 -513 -567 -813 -993 -524 -119 80 -219 224 -255 369
-59 231 30 497 215 646 150 120 342 167 528 128z"/>
</g>
</svg>
